<?xml version="1.0" encoding="UTF-8" standalone="no"?>
<!DOCTYPE svg PUBLIC "-//W3C//DTD SVG 1.1//EN"
 "http://www.w3.org/Graphics/SVG/1.1/DTD/svg11.dtd">
<!-- Generated by graphviz version 2.42.4 (0)
 -->
<!-- Title: G Pages: 1 -->
<svg width="1417pt" height="422pt"
 viewBox="0.00 0.00 1417.00 422.00" xmlns="http://www.w3.org/2000/svg" xmlns:xlink="http://www.w3.org/1999/xlink">
<g id="graph0" class="graph" transform="scale(1 1) rotate(0) translate(18 404)">
<title>G</title>
<polygon fill="white" stroke="transparent" points="-18,18 -18,-404 1399,-404 1399,18 -18,18"/>
<!-- legend -->
<g id="node1" class="node">
<title>legend</title>
<path fill="#f7f9f9" stroke="#2f4f4f" stroke-width="1.3" d="M379,-384C379,-384 12,-384 12,-384 6,-384 0,-378 0,-372 0,-372 0,-360 0,-360 0,-354 6,-348 12,-348 12,-348 379,-348 379,-348 385,-348 391,-354 391,-360 391,-360 391,-372 391,-372 391,-378 385,-384 379,-384"/>
<text text-anchor="middle" x="195.5" y="-369.2" font-family="DejaVu Sans" font-size="11.00">Solid outline: confirmed/strong &#160;| &#160;Dashed outline: unresolved detail</text>
<text text-anchor="middle" x="195.5" y="-357.2" font-family="DejaVu Sans" font-size="11.00">Living dates omitted &#160;| &#160;Children of Jan&#39;s cousins excluded</text>
</g>
<!-- ah -->
<g id="node2" class="node">
<title>ah</title>
<path fill="#d9eaf7" stroke="#2f4f4f" stroke-width="1.3" d="M563.5,-386C563.5,-386 425.5,-386 425.5,-386 419.5,-386 413.5,-380 413.5,-374 413.5,-374 413.5,-358 413.5,-358 413.5,-352 419.5,-346 425.5,-346 425.5,-346 563.5,-346 563.5,-346 569.5,-346 575.5,-352 575.5,-358 575.5,-358 575.5,-374 575.5,-374 575.5,-380 569.5,-386 563.5,-386"/>
<text text-anchor="middle" x="494.5" y="-369.6" font-family="DejaVu Sans" font-size="13.00">Arthur Herman Muller</text>
<text text-anchor="middle" x="494.5" y="-355.6" font-family="DejaVu Sans" font-size="13.00">&amp; Elma Anna Lee</text>
</g>
<!-- mg -->
<g id="node4" class="node">
<title>mg</title>
<path fill="#eaf2f8" stroke="#2f4f4f" stroke-width="1.3" d="M375,-309C375,-309 264,-309 264,-309 258,-309 252,-303 252,-297 252,-297 252,-281 252,-281 252,-275 258,-269 264,-269 264,-269 375,-269 375,-269 381,-269 387,-275 387,-281 387,-281 387,-297 387,-297 387,-303 381,-309 375,-309"/>
<text text-anchor="middle" x="319.5" y="-292.6" font-family="DejaVu Sans" font-size="13.00">Mary Gene Muller</text>
<text text-anchor="middle" x="319.5" y="-278.6" font-family="DejaVu Sans" font-size="13.00">&amp; James Chaffee</text>
</g>
<!-- ah&#45;&gt;mg -->
<g id="edge1" class="edge">
<title>ah&#45;&gt;mg</title>
<path fill="none" stroke="#566573" stroke-width="1.1" d="M422.5,-345.77C422.5,-322.96 422.5,-289 422.5,-289 422.5,-289 393.05,-289 393.05,-289"/>
<polygon fill="#566573" stroke="#566573" stroke-width="1.1" points="393.05,-286.9 387.05,-289 393.05,-291.1 393.05,-286.9"/>
</g>
<!-- js -->
<g id="node5" class="node">
<title>js</title>
<path fill="#eaf2f8" stroke="#2f4f4f" stroke-width="1.3" d="M545.5,-309C545.5,-309 443.5,-309 443.5,-309 437.5,-309 431.5,-303 431.5,-297 431.5,-297 431.5,-281 431.5,-281 431.5,-275 437.5,-269 443.5,-269 443.5,-269 545.5,-269 545.5,-269 551.5,-269 557.5,-275 557.5,-281 557.5,-281 557.5,-297 557.5,-297 557.5,-303 551.5,-309 545.5,-309"/>
<text text-anchor="middle" x="494.5" y="-292.6" font-family="DejaVu Sans" font-size="13.00">Jane Muller</text>
<text text-anchor="middle" x="494.5" y="-278.6" font-family="DejaVu Sans" font-size="13.00">&amp; Howard Swick</text>
</g>
<!-- ah&#45;&gt;js -->
<g id="edge2" class="edge">
<title>ah&#45;&gt;js</title>
<path fill="none" stroke="#566573" stroke-width="1.1" d="M494.5,-345.77C494.5,-345.77 494.5,-315.1 494.5,-315.1"/>
<polygon fill="#566573" stroke="#566573" stroke-width="1.1" points="496.6,-315.1 494.5,-309.1 492.4,-315.1 496.6,-315.1"/>
</g>
<!-- aa -->
<g id="node6" class="node">
<title>aa</title>
<path fill="#e2f0d9" stroke="#2f4f4f" stroke-width="2" d="M759.5,-309C759.5,-309 599.5,-309 599.5,-309 593.5,-309 587.5,-303 587.5,-297 587.5,-297 587.5,-281 587.5,-281 587.5,-275 593.5,-269 599.5,-269 599.5,-269 759.5,-269 759.5,-269 765.5,-269 771.5,-275 771.5,-281 771.5,-281 771.5,-297 771.5,-297 771.5,-303 765.5,-309 759.5,-309"/>
<text text-anchor="middle" x="679.5" y="-292.6" font-family="DejaVu Sans" font-size="13.00">Arthur John &#39;Art&#39; Muller</text>
<text text-anchor="middle" x="679.5" y="-278.6" font-family="DejaVu Sans" font-size="13.00">&amp; Anne Rives McCormick</text>
</g>
<!-- ah&#45;&gt;aa -->
<g id="edge3" class="edge">
<title>ah&#45;&gt;aa</title>
<path fill="none" stroke="#566573" stroke-width="1.1" d="M566.5,-345.77C566.5,-322.96 566.5,-289 566.5,-289 566.5,-289 581.49,-289 581.49,-289"/>
<polygon fill="#566573" stroke="#566573" stroke-width="1.1" points="581.49,-291.1 587.49,-289 581.49,-286.9 581.49,-291.1"/>
</g>
<!-- ce -->
<g id="node3" class="node">
<title>ce</title>
<path fill="#fce4d6" stroke="#2f4f4f" stroke-width="1.3" d="M1076.5,-386C1076.5,-386 878.5,-386 878.5,-386 872.5,-386 866.5,-380 866.5,-374 866.5,-374 866.5,-358 866.5,-358 866.5,-352 872.5,-346 878.5,-346 878.5,-346 1076.5,-346 1076.5,-346 1082.5,-346 1088.5,-352 1088.5,-358 1088.5,-358 1088.5,-374 1088.5,-374 1088.5,-380 1082.5,-386 1076.5,-386"/>
<text text-anchor="middle" x="977.5" y="-369.6" font-family="DejaVu Sans" font-size="13.00">Charles Ellsworth McCormick II</text>
<text text-anchor="middle" x="977.5" y="-355.6" font-family="DejaVu Sans" font-size="13.00">&amp; Eloise A. Slaughter</text>
</g>
<!-- ce&#45;&gt;aa -->
<g id="edge4" class="edge">
<title>ce&#45;&gt;aa</title>
<path fill="none" stroke="#566573" stroke-width="1.1" d="M866.11,-366C781.47,-366 679.5,-366 679.5,-366 679.5,-366 679.5,-315.23 679.5,-315.23"/>
<polygon fill="#566573" stroke="#566573" stroke-width="1.1" points="681.6,-315.23 679.5,-309.23 677.4,-315.23 681.6,-315.23"/>
</g>
<!-- pm -->
<g id="node7" class="node">
<title>pm</title>
<path fill="#fde9d9" stroke="#2f4f4f" stroke-width="1.3" d="M963,-309C963,-309 806,-309 806,-309 800,-309 794,-303 794,-297 794,-297 794,-281 794,-281 794,-275 800,-269 806,-269 806,-269 963,-269 963,-269 969,-269 975,-275 975,-281 975,-281 975,-297 975,-297 975,-303 969,-309 963,-309"/>
<text text-anchor="middle" x="884.5" y="-292.6" font-family="DejaVu Sans" font-size="13.00">Philip Brooks McCormick</text>
<text text-anchor="middle" x="884.5" y="-278.6" font-family="DejaVu Sans" font-size="13.00">&amp; Elizabeth &#39;Betsy&#39; Ross</text>
</g>
<!-- ce&#45;&gt;pm -->
<g id="edge5" class="edge">
<title>ce&#45;&gt;pm</title>
<path fill="none" stroke="#566573" stroke-width="1.1" d="M920.75,-345.77C920.75,-345.77 920.75,-315.1 920.75,-315.1"/>
<polygon fill="#566573" stroke="#566573" stroke-width="1.1" points="922.85,-315.1 920.75,-309.1 918.65,-315.1 922.85,-315.1"/>
</g>
<!-- cm -->
<g id="node8" class="node">
<title>cm</title>
<path fill="#fde9d9" stroke="#2f4f4f" stroke-width="1.3" stroke-dasharray="5,2" d="M1130,-309C1130,-309 1009,-309 1009,-309 1003,-309 997,-303 997,-297 997,-297 997,-281 997,-281 997,-275 1003,-269 1009,-269 1009,-269 1130,-269 1130,-269 1136,-269 1142,-275 1142,-281 1142,-281 1142,-297 1142,-297 1142,-303 1136,-309 1130,-309"/>
<text text-anchor="middle" x="1069.5" y="-292.6" font-family="DejaVu Sans" font-size="13.00">Charles McCormick</text>
<text text-anchor="middle" x="1069.5" y="-278.6" font-family="DejaVu Sans" font-size="13.00">&amp; Judy McCormick</text>
</g>
<!-- ce&#45;&gt;cm -->
<g id="edge6" class="edge">
<title>ce&#45;&gt;cm</title>
<path fill="none" stroke="#566573" stroke-width="1.1" d="M1042.75,-345.77C1042.75,-345.77 1042.75,-315.1 1042.75,-315.1"/>
<polygon fill="#566573" stroke="#566573" stroke-width="1.1" points="1044.85,-315.1 1042.75,-309.1 1040.65,-315.1 1044.85,-315.1"/>
</g>
<!-- gh -->
<g id="node9" class="node">
<title>gh</title>
<path fill="#fde9d9" stroke="#2f4f4f" stroke-width="2" d="M1369,-309C1369,-309 1176,-309 1176,-309 1170,-309 1164,-303 1164,-297 1164,-297 1164,-281 1164,-281 1164,-275 1170,-269 1176,-269 1176,-269 1369,-269 1369,-269 1375,-269 1381,-275 1381,-281 1381,-281 1381,-297 1381,-297 1381,-303 1375,-309 1369,-309"/>
<text text-anchor="middle" x="1272.5" y="-292.6" font-family="DejaVu Sans" font-size="13.00">Gwendolyn &#39;Gwen&#39; McCormick</text>
<text text-anchor="middle" x="1272.5" y="-278.6" font-family="DejaVu Sans" font-size="13.00">&amp; Jim Hull</text>
</g>
<!-- ce&#45;&gt;gh -->
<g id="edge7" class="edge">
<title>ce&#45;&gt;gh</title>
<path fill="none" stroke="#566573" stroke-width="1.1" d="M1088.61,-366C1172.23,-366 1272.5,-366 1272.5,-366 1272.5,-366 1272.5,-315.23 1272.5,-315.23"/>
<polygon fill="#566573" stroke="#566573" stroke-width="1.1" points="1274.6,-315.23 1272.5,-309.23 1270.4,-315.23 1274.6,-315.23"/>
</g>
<!-- mgc -->
<g id="node10" class="node">
<title>mgc</title>
<path fill="#f8fbfd" stroke="#2f4f4f" stroke-width="1.3" d="M359.5,-225C359.5,-225 233.5,-225 233.5,-225 227.5,-225 221.5,-219 221.5,-213 221.5,-213 221.5,-183 221.5,-183 221.5,-177 227.5,-171 233.5,-171 233.5,-171 359.5,-171 359.5,-171 365.5,-171 371.5,-177 371.5,-183 371.5,-183 371.5,-213 371.5,-213 371.5,-219 365.5,-225 359.5,-225"/>
<text text-anchor="middle" x="296.5" y="-208.6" font-family="DejaVu Sans" font-size="13.00">Linda Chaffee</text>
<text text-anchor="middle" x="296.5" y="-194.6" font-family="DejaVu Sans" font-size="13.00">Lori Chaffee Mettler</text>
<text text-anchor="middle" x="296.5" y="-180.6" font-family="DejaVu Sans" font-size="13.00">James Chaffee</text>
</g>
<!-- mg&#45;&gt;mgc -->
<g id="edge8" class="edge">
<title>mg&#45;&gt;mgc</title>
<path fill="none" stroke="#566573" stroke-width="1.1" d="M311.75,-268.8C311.75,-268.8 311.75,-231.05 311.75,-231.05"/>
<polygon fill="#566573" stroke="#566573" stroke-width="1.1" points="313.85,-231.05 311.75,-225.05 309.65,-231.05 313.85,-231.05"/>
</g>
<!-- jsc -->
<g id="node11" class="node">
<title>jsc</title>
<path fill="#f8fbfd" stroke="#2f4f4f" stroke-width="1.3" d="M583.5,-232C583.5,-232 405.5,-232 405.5,-232 399.5,-232 393.5,-226 393.5,-220 393.5,-220 393.5,-176 393.5,-176 393.5,-170 399.5,-164 405.5,-164 405.5,-164 583.5,-164 583.5,-164 589.5,-164 595.5,-170 595.5,-176 595.5,-176 595.5,-220 595.5,-220 595.5,-226 589.5,-232 583.5,-232"/>
<text text-anchor="middle" x="494.5" y="-215.6" font-family="DejaVu Sans" font-size="13.00">Kathy Swick Werblo</text>
<text text-anchor="middle" x="494.5" y="-201.6" font-family="DejaVu Sans" font-size="13.00">John Swick</text>
<text text-anchor="middle" x="494.5" y="-187.6" font-family="DejaVu Sans" font-size="13.00">Susan &#39;Sue&#39; Swick Galbraith</text>
<text text-anchor="middle" x="494.5" y="-173.6" font-family="DejaVu Sans" font-size="13.00">Patti Swick</text>
</g>
<!-- js&#45;&gt;jsc -->
<g id="edge9" class="edge">
<title>js&#45;&gt;jsc</title>
<path fill="none" stroke="#566573" stroke-width="1.1" d="M494.5,-268.8C494.5,-268.8 494.5,-238.08 494.5,-238.08"/>
<polygon fill="#566573" stroke="#566573" stroke-width="1.1" points="496.6,-238.08 494.5,-232.08 492.4,-238.08 496.6,-238.08"/>
</g>
<!-- aac -->
<g id="node12" class="node">
<title>aac</title>
<path fill="#f2f8ed" stroke="#2f4f4f" stroke-width="1.3" d="M745,-218C745,-218 630,-218 630,-218 624,-218 618,-212 618,-206 618,-206 618,-190 618,-190 618,-184 624,-178 630,-178 630,-178 745,-178 745,-178 751,-178 757,-184 757,-190 757,-190 757,-206 757,-206 757,-212 751,-218 745,-218"/>
<text text-anchor="middle" x="687.5" y="-201.6" font-family="DejaVu Sans" font-size="13.00">Bruce Muller</text>
<text text-anchor="middle" x="687.5" y="-187.6" font-family="DejaVu Sans" font-size="13.00">Jan Muller Vollmer</text>
</g>
<!-- aa&#45;&gt;aac -->
<g id="edge10" class="edge">
<title>aa&#45;&gt;aac</title>
<path fill="none" stroke="#566573" stroke-width="1.1" d="M687.5,-268.8C687.5,-268.8 687.5,-224.14 687.5,-224.14"/>
<polygon fill="#566573" stroke="#566573" stroke-width="1.1" points="689.6,-224.14 687.5,-218.14 685.4,-224.14 689.6,-224.14"/>
</g>
<!-- pmc -->
<g id="node13" class="node">
<title>pmc</title>
<path fill="#fff8f2" stroke="#2f4f4f" stroke-width="1.3" d="M945.5,-225C945.5,-225 807.5,-225 807.5,-225 801.5,-225 795.5,-219 795.5,-213 795.5,-213 795.5,-183 795.5,-183 795.5,-177 801.5,-171 807.5,-171 807.5,-171 945.5,-171 945.5,-171 951.5,-171 957.5,-177 957.5,-183 957.5,-183 957.5,-213 957.5,-213 957.5,-219 951.5,-225 945.5,-225"/>
<text text-anchor="middle" x="876.5" y="-208.6" font-family="DejaVu Sans" font-size="13.00">Sandy McCormick Hill</text>
<text text-anchor="middle" x="876.5" y="-194.6" font-family="DejaVu Sans" font-size="13.00">Ross McCormick</text>
<text text-anchor="middle" x="876.5" y="-180.6" font-family="DejaVu Sans" font-size="13.00">Tina McCormick</text>
</g>
<!-- pm&#45;&gt;pmc -->
<g id="edge11" class="edge">
<title>pm&#45;&gt;pmc</title>
<path fill="none" stroke="#566573" stroke-width="1.1" d="M876.5,-268.8C876.5,-268.8 876.5,-231.05 876.5,-231.05"/>
<polygon fill="#566573" stroke="#566573" stroke-width="1.1" points="878.6,-231.05 876.5,-225.05 874.4,-231.05 878.6,-231.05"/>
</g>
<!-- cmc -->
<g id="node14" class="node">
<title>cmc</title>
<path fill="#fff8f2" stroke="#2f4f4f" stroke-width="1.3" stroke-dasharray="5,2" d="M1161,-216C1161,-216 992,-216 992,-216 986,-216 980,-210 980,-204 980,-204 980,-192 980,-192 980,-186 986,-180 992,-180 992,-180 1161,-180 1161,-180 1167,-180 1173,-186 1173,-192 1173,-192 1173,-204 1173,-204 1173,-210 1167,-216 1161,-216"/>
<text text-anchor="middle" x="1076.5" y="-201.2" font-family="DejaVu Sans" font-size="11.00">No children identified</text>
<text text-anchor="middle" x="1076.5" y="-189.2" font-family="DejaVu Sans" font-size="11.00">(record question remains open)</text>
</g>
<!-- cm&#45;&gt;cmc -->
<g id="edge12" class="edge">
<title>cm&#45;&gt;cmc</title>
<path fill="none" stroke="#566573" stroke-width="1.1" d="M1069.5,-268.8C1069.5,-268.8 1069.5,-222.29 1069.5,-222.29"/>
<polygon fill="#566573" stroke="#566573" stroke-width="1.1" points="1071.6,-222.29 1069.5,-216.29 1067.4,-222.29 1071.6,-222.29"/>
</g>
<!-- ghc -->
<g id="node15" class="node">
<title>ghc</title>
<path fill="#fff8f2" stroke="#2f4f4f" stroke-width="2" d="M1310.5,-218C1310.5,-218 1234.5,-218 1234.5,-218 1228.5,-218 1222.5,-212 1222.5,-206 1222.5,-206 1222.5,-190 1222.5,-190 1222.5,-184 1228.5,-178 1234.5,-178 1234.5,-178 1310.5,-178 1310.5,-178 1316.5,-178 1322.5,-184 1322.5,-190 1322.5,-190 1322.5,-206 1322.5,-206 1322.5,-212 1316.5,-218 1310.5,-218"/>
<text text-anchor="middle" x="1272.5" y="-201.6" font-family="DejaVu Sans" font-size="13.00">Carey Zaura</text>
<text text-anchor="middle" x="1272.5" y="-187.6" font-family="DejaVu Sans" font-size="13.00">Mark Hull</text>
</g>
<!-- gh&#45;&gt;ghc -->
<g id="edge13" class="edge">
<title>gh&#45;&gt;ghc</title>
<path fill="none" stroke="#566573" stroke-width="1.1" d="M1272.5,-268.8C1272.5,-268.8 1272.5,-224.14 1272.5,-224.14"/>
<polygon fill="#566573" stroke="#566573" stroke-width="1.1" points="1274.6,-224.14 1272.5,-218.14 1270.4,-224.14 1274.6,-224.14"/>
</g>
<!-- jv -->
<g id="node16" class="node">
<title>jv</title>
<path fill="#ddebf7" stroke="#2f4f4f" stroke-width="2" d="M787,-117C787,-117 588,-117 588,-117 582,-117 576,-111 576,-105 576,-105 576,-89 576,-89 576,-83 582,-77 588,-77 588,-77 787,-77 787,-77 793,-77 799,-83 799,-89 799,-89 799,-105 799,-105 799,-111 793,-117 787,-117"/>
<text text-anchor="middle" x="687.5" y="-100.6" font-family="DejaVu Sans" font-size="13.00">Jan Muller Vollmer</text>
<text text-anchor="middle" x="687.5" y="-86.6" font-family="DejaVu Sans" font-size="13.00">&amp; Henry Richard &#39;Dick&#39; Vollmer</text>
</g>
<!-- aac&#45;&gt;jv -->
<g id="edge14" class="edge">
<title>aac&#45;&gt;jv</title>
<path fill="none" stroke="#566573" stroke-width="1.1" d="M687.5,-177.56C687.5,-177.56 687.5,-123.06 687.5,-123.06"/>
<polygon fill="#566573" stroke="#566573" stroke-width="1.1" points="689.6,-123.06 687.5,-117.06 685.4,-123.06 689.6,-123.06"/>
<text text-anchor="middle" x="699" y="-138" font-family="Times,serif" font-size="10.00"> Jan </text>
</g>
<!-- roots -->
<g id="node17" class="node">
<title>roots</title>
<path fill="#e2f0d9" stroke="#2f4f4f" stroke-width="2" d="M779.5,-40C779.5,-40 595.5,-40 595.5,-40 589.5,-40 583.5,-34 583.5,-28 583.5,-28 583.5,-12 583.5,-12 583.5,-6 589.5,0 595.5,0 595.5,0 779.5,0 779.5,0 785.5,0 791.5,-6 791.5,-12 791.5,-12 791.5,-28 791.5,-28 791.5,-34 785.5,-40 779.5,-40"/>
<text text-anchor="middle" x="687.5" y="-23.6" font-family="DejaVu Sans" font-size="13.00">Fredric Muller Vollmer</text>
<text text-anchor="middle" x="687.5" y="-9.6" font-family="DejaVu Sans" font-size="13.00">Arianna Lynn &#39;Annie&#39; Vollmer</text>
</g>
<!-- jv&#45;&gt;roots -->
<g id="edge15" class="edge">
<title>jv&#45;&gt;roots</title>
<path fill="none" stroke="#566573" stroke-width="1.1" d="M687.5,-76.77C687.5,-76.77 687.5,-46.1 687.5,-46.1"/>
<polygon fill="#566573" stroke="#566573" stroke-width="1.1" points="689.6,-46.1 687.5,-40.1 685.4,-46.1 689.6,-46.1"/>
</g>
</g>
</svg>
